<?xml version="1.0" encoding="UTF-8"?> <svg xmlns="http://www.w3.org/2000/svg" width="71" height="70" viewBox="0 0 71 70" fill="none"><path d="M34.1263 0.0331944C34.083 0.0753739 33.2811 0.174989 32.3358 0.261143C29.672 0.489092 27.1075 0.988066 25.5894 1.55794L25.2602 1.68627V20.8376L35.0717 11.0914C40.4577 5.73371 44.8263 1.30037 44.7686 1.24384C44.5539 1.05896 41.045 0.418194 39.2968 0.261143C37.3782 0.0753739 34.2264 -0.0673184 34.1263 0.0331944ZM45.1411 10.7917C41.4599 14.4685 38.4949 17.5045 38.5382 17.561C38.6383 17.6597 66.082 17.6884 66.082 17.5745C66.082 17.404 65.5805 16.5065 65.4804 16.5065C65.4235 16.5065 65.3658 16.4491 65.3658 16.3782C65.3658 16.2642 64.2491 14.525 64.0768 14.3679C63.9189 14.2261 63.0737 13.1142 63.0737 13.0433C63.0737 12.9293 61.4699 11.2054 60.41 10.1643C59.5239 9.30351 58.5964 8.48588 57.6308 7.71435C57.3593 7.49986 57.1157 7.27191 57.0869 7.20101C57.058 7.14358 56.9434 7.1005 56.8289 7.1005C56.7143 7.1005 56.6286 7.04396 56.6286 6.98653C56.6286 6.92999 56.3706 6.7164 56.0558 6.53063C55.7401 6.3314 55.483 6.13217 55.483 6.06037C55.483 6.00383 55.382 5.96166 55.2675 5.96166C55.1529 5.96166 55.0528 5.90422 55.0528 5.81807C55.0528 5.74717 54.8958 5.64755 54.6947 5.59012C54.4944 5.54794 54.3365 5.46178 54.3365 5.40525C54.3365 5.36217 54.093 5.19166 53.8071 5.0346C53.5058 4.87755 53.2343 4.7205 53.191 4.67832C53.0331 4.52127 52.1599 4.10845 52.0021 4.10845C51.9019 4.12281 48.8224 7.12922 45.1411 10.7917ZM17.4539 5.07768C17.2248 5.22037 16.9957 5.34781 16.9524 5.39178C16.9091 5.43396 16.5374 5.69063 16.136 5.96076C15.7211 6.23178 15.3765 6.50281 15.3765 6.55935C15.3765 6.63114 15.3052 6.67332 15.2195 6.67332C15.0906 6.67332 14.0451 7.41461 13.8015 7.67127C13.7582 7.71345 13.4579 7.95576 13.1277 8.22678C12.3258 8.83973 9.56195 11.5617 8.94585 12.3451C8.67344 12.687 8.34419 13.1008 8.20076 13.2713C7.90038 13.6276 6.96948 14.7969 6.81162 15.024C6.51034 15.4655 6.33895 15.7509 6.26679 15.9645C6.20996 16.1081 6.12427 16.2211 6.08097 16.2211C6.02324 16.2211 5.83742 16.4922 5.6516 16.8197C5.47931 17.1617 5.17893 17.6893 4.99311 18.0026C4.80638 18.3167 4.64853 18.672 4.64853 18.786C4.6341 19.014 6.29565 20.781 6.51034 20.781C6.5825 20.781 6.63934 20.8385 6.63934 20.895C6.63934 21.052 8.65991 23.0614 8.81686 23.0614C8.87369 23.0614 8.93142 23.1188 8.93142 23.1754C8.93142 23.3181 15.0184 29.374 15.234 29.4458C15.3052 29.4745 15.3765 29.5454 15.3765 29.6163C15.3765 29.7024 17.3817 31.7252 18.1701 32.4522C18.2125 32.4809 18.2414 26.2823 18.2414 18.672C18.2414 7.68563 18.199 4.82101 18.07 4.83537C17.9699 4.83537 17.6975 4.94935 17.4539 5.07768Z" fill="#E52228"></path><path d="M50.0443 24.6122C50.0443 24.6974 54.4553 29.1442 59.8558 34.5163C65.9717 40.5865 69.6673 44.1637 69.6673 44.0067C69.6673 43.864 69.7241 43.7078 69.7963 43.6647C69.8676 43.6217 69.9533 43.3372 69.9966 43.0518C70.1544 41.8833 70.4115 40.5013 70.5405 40.0876C70.7561 39.4612 70.8562 33.0481 70.6839 31.4668C70.4692 29.514 70.2834 28.3168 70.1111 27.8609C70.0136 27.5763 69.9604 27.2785 69.9533 26.9778C69.9533 26.7068 69.8964 26.4645 69.8243 26.4214C69.753 26.3792 69.6529 26.0373 69.5951 25.681C69.3949 24.3555 70.4259 24.4838 59.6123 24.4838C53.6822 24.4838 50.0443 24.5404 50.0443 24.6122ZM1.63089 26.4501C1.63089 26.6781 1.58759 26.906 1.52986 26.9635C1.11492 27.3619 0.398698 34.0317 0.542123 36.0976C0.69998 38.3923 0.942629 40.5013 1.14378 41.3844C1.25834 41.8546 1.34404 42.4532 1.34404 42.6955C1.34404 42.9522 1.4162 43.1514 1.48746 43.1514C1.57315 43.1514 1.63089 43.295 1.63089 43.4655C1.63089 43.8927 2.08912 45.3322 2.27494 45.4605C2.50406 45.631 21.0816 45.6032 21.1817 45.4318C21.2827 45.2747 2.04582 26.0517 1.78784 26.0517C1.70214 26.0517 1.63089 26.2365 1.63089 26.4501ZM53.1951 51.4886C53.1951 61.6772 53.2384 65.24 53.353 65.24C53.5244 65.24 54.9135 64.4278 55.057 64.2564C55.1715 64.1137 55.6731 63.8149 55.9599 63.7296C56.0889 63.6722 56.2034 63.586 56.2034 63.5295C56.2034 63.4577 56.4461 63.2594 56.7474 63.088C57.3057 62.7317 57.7216 62.4041 58.3512 61.8199C58.5524 61.6197 58.9105 61.3065 59.1396 61.136C59.8269 60.594 60.8012 59.6391 61.5742 58.7704C61.9756 58.3145 62.4627 57.7581 62.6918 57.5445C62.9065 57.3165 63.0779 57.0742 63.0779 56.9881C63.0779 56.9037 63.1212 56.8319 63.1925 56.8319C63.2502 56.8319 63.4504 56.5896 63.6516 56.2908C63.8519 56.0054 64.1243 55.6356 64.2668 55.4786C64.4102 55.3215 64.6682 54.9509 64.8405 54.6521C64.9974 54.3667 65.1842 54.1244 65.241 54.1244C65.2987 54.1244 65.37 54.0104 65.4277 53.8821C65.4801 53.7148 65.5574 53.5563 65.6568 53.4118C65.7281 53.2978 66.0574 52.7567 66.3586 52.229L66.917 51.2463L60.1273 44.4913C56.4037 40.7714 53.3097 37.7363 53.2664 37.7363C53.224 37.7363 53.1951 43.9214 53.1951 51.4886ZM36.3937 58.9265C30.9797 64.2995 26.5534 68.7454 26.5534 68.8019C26.5534 68.8881 27.7134 69.1582 28.7733 69.3296C29.0168 69.3583 29.3326 69.4436 29.4895 69.5154C30.664 70.0135 37.1956 70.1705 40.0894 69.7712C42.2236 69.4723 43.3259 69.2722 43.813 69.0873C44.0277 69.0021 44.3714 68.9446 44.6014 68.9446C44.8305 68.9446 45.0452 68.8881 45.0876 68.8163C45.1309 68.7597 45.4322 68.6601 45.747 68.6027L46.3198 68.5174V58.8269C46.3198 53.498 46.3054 49.1373 46.2765 49.1373C46.2485 49.1373 41.8078 53.5401 36.3937 58.9265ZM5.41224 52.5709C5.35451 52.6705 5.89934 53.725 6.07073 53.8399C6.12846 53.8821 6.21415 54.0535 6.27098 54.224C6.32871 54.4097 6.44237 54.5515 6.51453 54.5515C6.58669 54.5515 6.64353 54.6521 6.64353 54.766C6.64353 54.88 6.68682 54.9796 6.75808 54.9796C6.81581 54.9796 6.9872 55.2076 7.13063 55.4786C7.28849 55.7487 7.45987 55.9767 7.5176 55.9767C7.57443 55.9767 7.77559 56.219 7.94698 56.5044C8.1337 56.8032 8.43407 57.1882 8.60546 57.3453C8.79218 57.5158 8.93561 57.6863 8.93561 57.7437C8.93561 57.9438 12.7603 61.6341 13.6623 62.3188C14.0042 62.5703 14.3387 62.8316 14.6654 63.1023C14.7078 63.1454 15.2237 63.5017 15.811 63.8858C16.3982 64.2851 16.9133 64.6271 16.9566 64.6701C16.9999 64.7123 17.2578 64.8694 17.5294 65.0112C17.8018 65.1682 18.0597 65.3253 18.1021 65.3683C18.26 65.5532 19.1341 65.9517 19.3632 65.9517C19.5066 65.9517 22.643 62.9453 26.3387 59.255C30.0343 55.5638 32.9994 52.5565 32.9272 52.5565C28.0426 52.5 5.45463 52.5144 5.41224 52.5709Z" fill="#E52228"></path></svg> 